<svg xmlns="http://www.w3.org/2000/svg" shape-rendering="geometricPrecision" text-rendering="geometricPrecision" image-rendering="optimizeQuality" fill-rule="evenodd" clip-rule="evenodd" viewBox="0 0 512 493.03"><path fill="#0983E0" fill-rule="nonzero" d="M125.19 0H386.8C455.58 0 512 56.42 512 125.19v242.64c0 68.89-56.31 125.2-125.2 125.2H125.19C56.42 493.03 0 436.61 0 367.83V125.19C0 56.33 56.35 0 125.19 0z"/><path fill="#88DFF3" d="M125.19 18.97H386.8c58.44 0 106.23 47.82 106.23 106.22v242.64c0 58.41-47.82 106.23-106.23 106.23H125.19c-58.4 0-106.22-47.79-106.22-106.23V125.19c0-58.43 47.79-106.22 106.22-106.22z"/><path fill="#A3EDFD" d="M141.39 28.47h223.53c58.43 0 111.94 48.46 111.94 106.22v223.67c0 57.76-54.18 106.23-111.94 106.23H141.39c-57.76 0-106.23-47.8-106.23-106.23V134.69c0-58.43 47.8-106.22 106.23-106.22z"/><path fill="#E8FBFD" d="M309.47 28.47h55.45c58.43 0 111.94 48.37 111.94 106.22v36.73c-17.51-.31-9.77-39.22-22.42-66.7-24.93-54.15-81.59-61.38-144.97-76.25z"/><path fill="#fff" fill-rule="nonzero" d="M275.09 125.71c3.43 0 6.79.38 9.97 1.1 13.26 3 19.69 10.9 26.36 21.97 14.65 34.76 44.14 152.13 47.84 197.11 0 7.34-2.49 12.96-7.35 16.82-2.26 1.81-4.9 3-7.77 3.74-2.33.6-4.77.87-7.21.87h-15.3c-34.89 0-47.5-14.51-53.57-46.25h-28.67l-7.52 31.4c-2.8 9.27-10.82 14.85-20.43 14.85h-15.92c-11.51-.69-15.72-1.41-26.25-6.52-9.97-5.64-16.51-15.88-16.51-27.52 0-3.05.47-6.86 1.33-11.36 2.62-10.7 5.17-19.91 8.33-30.52 15.97-48.72 34.51-97.31 55.56-144.03l4.59-8.8c4.26-7.55 9.19-11.63 17.9-12.57 11.2-.83 23.33-.29 34.62-.29z"/><path fill="#0983E0" fill-rule="nonzero" d="M275.07 139.93c5.01 0 9.16.95 12.46 2.85 3.3 1.9 6.06 4.4 8.26 7.51 2.2 3.1 4 6.65 5.4 10.66 1.4 4 2.6 8.1 3.61 12.31 8 32.42 14.61 59.14 19.81 80.16 5.21 21.02 9.31 37.98 12.31 50.89 3 12.91 5.11 22.47 6.31 28.67 1.2 6.21 1.8 10.51 1.8 12.91 0 2.81-.65 4.71-1.95 5.71-1.3 1-3.36 1.5-6.16 1.5h-15.31c-8.61 0-15.46-1.05-20.57-3.15-5.1-2.1-9-5.16-11.71-9.16-2.7-4-4.65-8.86-5.85-14.56-1.2-5.71-2.2-12.16-3-19.37h-52.25l-9.9 41.44c-1.01 3.2-3.31 4.8-6.91 4.8h-15.91c-3.21 0-6.51-.35-9.91-1.05-3.4-.7-6.46-1.85-9.16-3.45a22.13 22.13 0 01-6.75-6.16c-1.8-2.5-2.71-5.55-2.71-9.16 0-4.4 1.41-11.6 4.21-21.61s6.35-21.37 10.66-34.08c4.3-12.71 9.1-26.02 14.41-39.93 5.3-13.91 10.46-27.07 15.46-39.48 5-12.41 9.56-23.32 13.66-32.73 4.1-9.41 7.26-16.01 9.46-19.82 1.6-2.8 3.05-4.45 4.35-4.95 1.3-.5 3.76-.75 7.36-.75h28.52zm-36.03 123.4h34.53l-12.61-79.27-21.92 79.27z"/></svg>